<svg width="133" height="23" viewBox="0 0 133 23" fill="none" xmlns="http://www.w3.org/2000/svg">
<path d="M0.0888672 22.0522H4.44521V13.5408H12.8259V9.94903H4.44521V5.03934H13.7314V1.44763H0.0888672V22.0522Z" fill="white"/>
<path d="M16.5811 22.0522H20.867V6.59877H16.5811V22.0522ZM18.7341 4.60673C20.0118 4.60673 21.0582 3.63083 21.0582 2.43359C21.0582 1.24641 20.0118 0.270508 18.7341 0.270508C17.4664 0.270508 16.4201 1.24641 16.4201 2.43359C16.4201 3.63083 17.4664 4.60673 18.7341 4.60673Z" fill="white"/>
<path d="M27.8819 6.59877H23.4552L27.8819 14.3255L23.2942 22.0522H27.721L30.7191 16.7099L33.7675 22.0522H38.144L33.5462 14.3255L38.0233 6.59877H33.6267L30.7191 12.0014L27.8819 6.59877Z" fill="white"/>
<path d="M47.0302 22.354C50.8533 22.354 53.4289 20.4928 54.0326 17.6255L50.0686 17.3639C49.636 18.541 48.5293 19.1547 47.1006 19.1547C44.9577 19.1547 43.5995 17.7361 43.5995 15.4322V15.4221H54.1231V14.245C54.1231 8.99325 50.9439 6.39756 46.8592 6.39756C42.3117 6.39756 39.3639 9.62709 39.3639 14.3959C39.3639 19.2956 42.2714 22.354 47.0302 22.354ZM43.5995 12.7661C43.69 11.0054 45.0281 9.5969 46.9296 9.5969C48.7909 9.5969 50.0786 10.9249 50.0887 12.7661H43.5995Z" fill="white"/>
<path d="M62.6144 22.3037C65.1095 22.3037 66.4074 20.865 67.001 19.5773H67.1821V22.0522H71.4076V1.44763H67.1318V9.19447H67.001C66.4275 7.93687 65.19 6.39756 62.6044 6.39756C59.2139 6.39756 56.3465 9.0335 56.3465 14.3456C56.3465 19.5169 59.0932 22.3037 62.6144 22.3037ZM63.9727 18.8931C61.8699 18.8931 60.723 17.0218 60.723 14.3255C60.723 11.6493 61.8498 9.80818 63.9727 9.80818C66.0553 9.80818 67.2223 11.5688 67.2223 14.3255C67.2223 17.0822 66.0351 18.8931 63.9727 18.8931Z" fill="white"/>
<path d="M75.0119 22.0522H83.8151C88.4431 22.0522 90.908 19.6376 90.908 16.3578C90.908 13.3094 88.7248 11.4682 86.3807 11.3576V11.1563C88.5236 10.6734 90.1032 9.15423 90.1032 6.72957C90.1032 3.64089 87.8093 1.44763 83.2618 1.44763H75.0119V22.0522ZM79.3683 18.4907V13.0176H83.0203C85.113 13.0176 86.4108 14.2249 86.4108 15.9252C86.4108 17.4745 85.3545 18.4907 82.9197 18.4907H79.3683ZM79.3683 10.0698V4.96892H82.6783C84.61 4.96892 85.7066 5.96494 85.7066 7.45395C85.7066 9.0838 84.3786 10.0698 82.5978 10.0698H79.3683Z" fill="white"/>
<path d="M93.6622 22.0522H97.9481V6.59877H93.6622V22.0522ZM95.8152 4.60673C97.0929 4.60673 98.1393 3.63083 98.1393 2.43359C98.1393 1.24641 97.0929 0.270508 95.8152 0.270508C94.5475 0.270508 93.5012 1.24641 93.5012 2.43359C93.5012 3.63083 94.5475 4.60673 95.8152 4.60673Z" fill="white"/>
<path d="M107.076 22.3037C109.571 22.3037 110.869 20.865 111.462 19.5773H111.643V22.0522H115.869V1.44763H111.593V9.19447H111.462C110.889 7.93687 109.651 6.39756 107.066 6.39756C103.675 6.39756 100.808 9.0335 100.808 14.3456C100.808 19.5169 103.555 22.3037 107.076 22.3037ZM108.434 18.8931C106.331 18.8931 105.184 17.0218 105.184 14.3255C105.184 11.6493 106.311 9.80818 108.434 9.80818C110.517 9.80818 111.684 11.5688 111.684 14.3255C111.684 17.0822 110.496 18.8931 108.434 18.8931Z" fill="white"/>
<path d="M132.251 11.0054C131.868 8.1582 129.574 6.39756 125.671 6.39756C121.717 6.39756 119.111 8.22863 119.121 11.2066C119.111 13.5206 120.57 15.0197 123.588 15.6233L126.264 16.1566C127.612 16.4282 128.226 16.9212 128.246 17.6959C128.226 18.6114 127.23 19.2654 125.731 19.2654C124.202 19.2654 123.186 18.6114 122.924 17.3538L118.709 17.5751C119.111 20.533 121.626 22.354 125.721 22.354C129.725 22.354 132.593 20.3117 132.603 17.2633C132.593 15.0298 131.134 13.6917 128.136 13.078L125.339 12.5145C123.9 12.2027 123.367 11.7097 123.377 10.9652C123.367 10.0396 124.413 9.43593 125.741 9.43593C127.23 9.43593 128.116 10.2509 128.327 11.2469L132.251 11.0054Z" fill="white"/>
</svg>
