<svg width="114" height="114" viewBox="0 0 114 114" fill="none" xmlns="http://www.w3.org/2000/svg">
<rect x="0.391602" y="0.105957" width="113.336" height="113.336" rx="47" fill="#EDF4FF" fill-opacity="0.8"/>
<path d="M70.6722 70.4751C68.374 72.5966 65.5455 74.3644 62.3634 75.0715C59.358 75.9555 55.9991 75.9555 52.9938 75.2483C49.9885 74.5412 47.1599 72.9501 44.8617 70.8287C42.5635 68.7073 40.9725 66.0555 39.9118 63.0502C39.9118 62.6966 39.9118 62.3431 39.9118 61.9895C39.9118 61.6359 40.0886 61.2824 40.4421 60.9288C40.6189 60.5752 40.9725 60.3985 41.326 60.2217C41.6796 60.0449 42.0332 59.8681 42.3867 60.0449L57.4134 60.3985L57.767 54.211L42.7403 53.8574C42.3867 53.8574 42.0332 53.6807 41.6796 53.5039C41.326 53.3271 40.9725 52.9735 40.7957 52.7967C40.6189 52.4432 40.4421 52.0896 40.4421 51.736C40.4421 51.3825 40.4421 50.8521 40.6189 50.4985C41.8564 47.4932 43.801 45.0182 46.276 42.8968C48.751 40.7754 51.7563 39.5379 54.7616 38.8308C57.9437 38.1237 61.1259 38.3004 64.1312 39.1844C67.1365 40.0683 69.7883 41.8361 71.9097 44.1343C72.6168 45.0182 73.324 45.9022 74.0311 46.7861L88.3506 47.1396C87.1131 41.4826 84.8149 36.7094 81.2792 32.9969C75.9757 26.9863 68.0204 24.1577 57.4134 24.1577C46.9831 24.1577 39.0279 26.9863 33.7243 32.8201C28.4208 38.654 25.769 46.6093 25.769 56.8628C25.769 66.9395 28.4208 75.0715 33.7243 80.7286C39.0279 86.5625 46.9831 89.391 57.4134 89.391C67.8437 89.391 75.7989 86.5625 81.1025 80.7286C84.2846 77.3697 86.406 73.1269 87.8203 68.177L72.9704 67.8234C72.2633 68.8841 71.5561 69.768 70.6722 70.4751Z" fill="url(#paint0_linear_26_770)"/>
<path d="M71.3788 51.2056C71.0252 51.0288 70.6716 50.6752 70.4948 50.3216C69.9645 49.2609 69.2574 48.2002 68.3734 47.3163C65.8985 44.6645 62.5396 43.0735 58.8271 43.0735C55.1146 43.0735 51.5789 44.311 48.7504 46.9627C48.22 47.4931 47.5129 48.2002 46.9826 48.7306L60.4181 49.0841C61.1253 49.0841 61.6556 49.4377 62.0092 49.7913C62.3628 50.3216 62.7163 50.852 62.7163 51.5591L62.186 62.6965C62.186 63.0501 62.0092 63.4037 62.0092 63.5804C61.8324 63.934 61.6556 64.1108 61.4789 64.2876C61.3021 64.4644 60.9485 64.6411 60.5949 64.8179C60.2414 64.9947 59.8878 64.9947 59.711 64.9947L46.0986 64.8179C46.629 65.5251 46.9826 66.0554 47.5129 66.7626C48.7504 68 50.1647 69.0607 51.9325 69.9447C53.5236 70.6518 55.4682 71.0054 57.236 71.0054C59.0039 71.0054 60.9485 70.6518 62.5396 69.9447C64.3074 69.2375 65.8985 68.1768 67.1359 66.9393C68.0199 66.0554 68.9038 65.1715 69.4341 64.1108C69.6109 63.7572 69.9645 63.4037 70.3181 63.2269C70.6716 63.0501 71.202 62.8733 71.5555 62.8733L88.5268 63.2269C88.7036 61.1055 88.8804 58.9841 88.8804 56.6859C88.8804 54.918 88.8804 53.327 88.7036 51.7359L72.2627 51.3823C72.0859 51.5591 71.7323 51.3823 71.3788 51.2056Z" fill="url(#paint1_linear_26_770)"/>
<defs>
<linearGradient id="paint0_linear_26_770" x1="27.9229" y1="24.1577" x2="38.1117" y2="94.7916" gradientUnits="userSpaceOnUse">
<stop stop-color="#1F71ED"/>
<stop offset="0.79483" stop-color="#649AEC"/>
</linearGradient>
<linearGradient id="paint1_linear_26_770" x1="47.571" y1="43.0735" x2="50.3379" y2="73.6971" gradientUnits="userSpaceOnUse">
<stop stop-color="#1F71ED"/>
<stop offset="0.79483" stop-color="#649AEC"/>
</linearGradient>
</defs>
</svg>
