<svg width="24" height="23" viewBox="0 0 24 23" fill="none" xmlns="http://www.w3.org/2000/svg">
<path fill-rule="evenodd" clip-rule="evenodd" d="M5.60816 0.715423C6.80686 0.731521 7.66108 1.62974 8.74173 2.7662C9.00895 3.04629 9.29762 3.35213 9.62064 3.67408C11.1864 5.24087 10.741 6.51898 10.3815 7.5449C9.99087 8.66419 9.65283 9.63002 11.6768 11.654C13.7007 13.6779 14.6655 13.3399 15.7837 12.946C16.8107 12.5876 18.0856 12.139 19.6545 13.7058C19.9732 14.0245 20.2737 14.31 20.5527 14.5751C21.6935 15.6611 22.5949 16.5185 22.6101 17.7204C22.6218 18.7442 21.9993 19.7895 20.4626 21.3262L19.7822 20.8647L20.3585 21.426C20.0183 21.7748 19.1137 22.7041 17.3419 22.7148H17.3097C14.6354 22.7148 11.1488 20.5857 6.94637 16.3844C2.72677 12.1659 0.594434 8.66848 0.610441 5.98885C0.62019 4.21816 1.54846 3.31136 1.89723 2.97117L1.927 2.93866L1.99918 2.866C3.53914 1.32604 4.59726 0.692887 5.60816 0.715423ZM5.58777 2.32514H5.57918C5.09727 2.32514 4.36542 2.80805 3.34471 3.79952L3.13975 4.00081L3.14207 4.00031C3.14336 4.00031 3.12456 4.0204 3.09471 4.05084L3.02296 4.12265C2.76326 4.37484 2.22561 4.89961 2.22019 5.99743C2.21166 7.5331 3.22149 10.3844 8.0839 15.2458C12.9227 20.0835 15.7697 21.1051 17.3097 21.1051H17.3322C18.4301 21.0987 18.9538 20.561 19.2059 20.3024C19.2821 20.2241 19.3444 20.1651 19.3884 20.1296C20.4583 19.0533 21.0056 18.2538 21.0003 17.7398C20.9938 17.2161 20.3424 16.5979 19.442 15.7405C19.1555 15.469 18.8443 15.1717 18.5159 14.8433C17.6638 13.9945 17.2442 14.1394 16.316 14.4656C15.0336 14.9152 13.2768 15.5312 10.5392 12.7915C7.80059 10.0539 8.41442 8.29718 8.86193 7.0137C9.18601 6.0865 9.33411 5.66476 8.48311 4.81268C8.15043 4.48001 7.85103 4.1645 7.57523 3.87476C6.72315 2.97975 6.10824 2.33265 5.58777 2.32514ZM14.8255 4.53313C17.0587 4.96668 18.7832 6.69014 19.2179 8.92443C19.3026 9.36227 19.0183 9.78401 18.5826 9.86879C18.53 9.87845 18.4785 9.88382 18.427 9.88382C18.0492 9.88382 17.7133 9.61768 17.6382 9.23349C17.3291 7.64524 16.1047 6.42079 14.5186 6.11279C14.0818 6.02802 13.7974 5.60627 13.8822 5.1695C13.967 4.73273 14.3962 4.44728 14.8255 4.53313ZM14.7612 0.72154C19.1375 1.20767 22.5361 4.60202 23.0266 8.97723C23.0759 9.41936 22.7583 9.8175 22.3172 9.86686C22.2872 9.87008 22.256 9.87223 22.226 9.87223C21.8214 9.87223 21.4737 9.56853 21.4276 9.15751C21.0208 5.53458 18.2071 2.72295 14.5831 2.32052C14.142 2.27116 13.8233 1.8741 13.8726 1.43196C13.9209 0.990899 14.3148 0.665737 14.7612 0.72154Z" fill="#1F71ED"/>
</svg>
