<svg width="26" height="25" viewBox="0 0 26 25" fill="none" xmlns="http://www.w3.org/2000/svg">
<path fill-rule="evenodd" clip-rule="evenodd" d="M12.1461 0.538737C12.5996 0.185981 13.2347 0.185981 13.6883 0.538737L24.992 9.33054C25.5396 9.7564 25.6382 10.5455 25.2123 11.093C24.7865 11.6406 23.9974 11.7392 23.4498 11.3133L22.9649 10.9362V21.6257C22.9649 23.013 21.8403 24.1376 20.453 24.1376H5.38131C3.994 24.1376 2.86936 23.013 2.86936 21.6257V10.9363L2.38454 11.3133C1.83701 11.7392 1.04791 11.6406 0.622047 11.093C0.196185 10.5455 0.294822 9.7564 0.842359 9.33054L12.1461 0.538737ZM11.6612 15.3458C10.9675 15.3458 10.4052 15.9081 10.4052 16.6018V21.6257H15.4291V16.6018C15.4291 15.9081 14.8668 15.3458 14.1731 15.3458H11.6612Z" fill="white"/>
</svg>
