<svg width="21" height="23" viewBox="0 0 21 23" fill="none" xmlns="http://www.w3.org/2000/svg">
<path fill-rule="evenodd" clip-rule="evenodd" d="M8.19412 20.415C8.74678 21.0306 9.45627 21.3688 10.1924 21.3688H10.1935C10.9329 21.3688 11.6456 21.0306 12.1993 20.4139C12.4959 20.0864 13.0016 20.0597 13.3291 20.3553C13.6577 20.6508 13.6844 21.1576 13.3889 21.4851C12.5268 22.4421 11.3927 22.9692 10.1935 22.9692H10.1914C8.99537 22.9681 7.86338 22.4411 7.00453 21.4841C6.70899 21.1565 6.73567 20.6497 7.06427 20.3553C7.39288 20.0587 7.89859 20.0853 8.19412 20.415ZM10.2456 0.0307617C14.988 0.0307617 18.1737 3.72438 18.1737 7.17368C18.1737 8.94794 18.625 9.70011 19.1041 10.4981C19.5778 11.2855 20.1144 12.1796 20.1144 13.8696C19.7421 18.1873 15.2344 18.5394 10.2456 18.5394C5.25673 18.5394 0.747993 18.1873 0.379897 13.9378C0.37671 12.1796 0.913363 11.2855 1.38707 10.4981L1.5543 10.2167C1.96605 9.50898 2.31741 8.7392 2.31741 7.17368C2.31741 3.72438 5.50318 0.0307617 10.2456 0.0307617ZM10.2456 1.63112C6.51674 1.63112 3.91776 4.5523 3.91776 7.17368C3.91776 9.39177 3.30216 10.4171 2.75804 11.3218C2.32168 12.0484 1.97707 12.6224 1.97707 13.8696C2.15524 15.8817 3.48353 16.939 10.2456 16.939C16.9703 16.939 18.3402 15.8348 18.5173 13.8002C18.5141 12.6224 18.1695 12.0484 17.7331 11.3218C17.189 10.4171 16.5734 9.39177 16.5734 7.17368C16.5734 4.5523 13.9744 1.63112 10.2456 1.63112Z" fill="#263238"/>
</svg>
