<svg width="23" height="23" viewBox="0 0 23 23" fill="none" xmlns="http://www.w3.org/2000/svg">
<path fill-rule="evenodd" clip-rule="evenodd" d="M11.2519 0.333252C16.9532 0.333252 21.5906 4.97071 21.5906 10.672C21.5906 13.3618 20.5584 15.8151 18.8691 17.6563L22.193 20.9732C22.5041 21.2843 22.5052 21.7875 22.1941 22.0986C22.0391 22.2557 21.8342 22.3333 21.6303 22.3333C21.4276 22.3333 21.2237 22.2557 21.0676 22.1007L17.7036 18.7461C15.934 20.1633 13.6903 21.0118 11.2519 21.0118C5.55063 21.0118 0.912109 16.3732 0.912109 10.672C0.912109 4.97071 5.55063 0.333252 11.2519 0.333252ZM11.2519 1.92579C6.42865 1.92579 2.50464 5.84873 2.50464 10.672C2.50464 15.4952 6.42865 19.4192 11.2519 19.4192C16.0741 19.4192 19.9981 15.4952 19.9981 10.672C19.9981 5.84873 16.0741 1.92579 11.2519 1.92579Z" fill="#263238"/>
</svg>
