<svg width="20" height="25" viewBox="0 0 20 25" fill="none" xmlns="http://www.w3.org/2000/svg">
<path fill-rule="evenodd" clip-rule="evenodd" d="M9.71417 15.5464L9.85746 15.5465L10.175 15.5473C12.8723 15.5618 19.191 15.8069 19.191 19.9751C19.191 23.8395 14.0015 24.356 9.9649 24.3754L9.25329 24.3751C6.556 24.3607 0.237305 24.1156 0.237305 19.9486C0.237305 16.0024 5.64526 15.5464 9.71417 15.5464ZM9.71417 17.3511C4.62383 17.3511 2.04196 18.2257 2.04196 19.9486C2.04196 21.6883 4.62383 22.5714 9.71417 22.5714C14.8045 22.5714 17.3864 21.6967 17.3864 19.9751C17.3864 18.233 14.8045 17.3511 9.71417 17.3511ZM9.71417 0.560547C13.2429 0.560547 16.1123 3.43116 16.1123 6.95866C16.1123 10.4862 13.2429 13.3568 9.71417 13.3568H9.67687C7.96966 13.3508 6.36953 12.6806 5.17004 11.4727C3.96934 10.2636 3.31124 8.65865 3.31721 6.95505C3.31721 3.43116 6.18666 0.560547 9.71417 0.560547ZM9.71417 2.3652C7.18283 2.3652 5.12188 4.42612 5.12188 6.95866C5.1171 8.18463 5.58872 9.33359 6.44894 10.201C7.31036 11.0673 8.45812 11.5473 9.68048 11.5521L9.71417 12.4436V11.5521C12.2467 11.5521 14.3076 9.4912 14.3076 6.95866C14.3076 4.42612 12.2467 2.3652 9.71417 2.3652Z" fill="#9D9D9D"/>
</svg>
